<svg width="151" height="24" viewBox="0 0 151 24" fill="none" xmlns="http://www.w3.org/2000/svg">
<g clip-path="url(#clip0_515_9)">
<path d="M78.4176 5.4389V7.70279H72.0861V10.7722H77.8756V13.0611H72.0861V16.2806H78.7566V18.5445H69.6931V5.4389H78.4176Z" fill="currentColor"/>
<path d="M92.2089 7.70279H87.8814V18.5361H85.4828V7.70279H81.158V5.4389H92.2089V7.70279Z" fill="currentColor"/>
<path d="M104.177 5.4389V7.70279H97.8455V10.7722H103.632V13.0611H97.8455V16.2806H104.516V18.5445H95.4496V5.4389H104.177Z" fill="currentColor"/>
<path d="M133.077 18.5417H130.575L124.525 9.20002V18.5417H122.146V5.4389H124.769L130.706 14.6667V5.4389H133.085L133.077 18.5417Z" fill="currentColor"/>
<path d="M150.14 12.0083C150.14 15.7528 147.816 18.8806 143.658 18.8806C139.5 18.8806 137.177 15.7528 137.177 11.9889C137.177 8.225 139.52 5.11945 143.658 5.11945C147.797 5.11945 150.14 8.24722 150.14 12.0083ZM143.658 16.5389C146.318 16.5389 147.705 14.5 147.705 12.0278C147.705 9.55556 146.337 7.46111 143.658 7.46111C140.979 7.46111 139.611 9.5 139.611 11.9722C139.611 14.4444 140.998 16.5389 143.658 16.5389Z" fill="currentColor"/>
<path d="M115.731 18.5806C115.731 18.5806 113.994 16.3945 113.438 15.6833L113.232 15.4195C112.423 14.3945 111.584 13.3333 112.079 12.2556C112.234 11.9111 112.668 11.4222 113.746 11.2806C114.702 11.1528 115.536 10.4472 115.522 9.42223C115.522 8.50835 114.619 7.77223 113.802 7.77223H110.38V18.5806H108.04V5.43335H113.827C115.961 5.43335 117.86 7.28057 117.888 9.3889C117.88 10.3253 117.566 11.2335 116.993 11.9741C116.419 12.7148 115.619 13.2469 114.714 13.4889C114.847 13.6667 114.991 13.8417 115.086 13.9722L115.306 14.25C115.861 14.9722 118.733 18.5806 118.733 18.5806H115.731Z" fill="currentColor"/>
<g clip-path="url(#clip1_515_9)">
<path d="M20.6534 15.9641C20.0228 16.4063 19.3626 16.8035 18.6775 17.1526C18.3063 17.3456 17.9275 17.527 17.5449 17.6987C17.4478 17.7431 17.3546 17.7817 17.2499 17.828C17.6687 17.635 17.3146 17.801 17.2194 17.8395C17.029 17.9167 16.8387 17.9939 16.6483 18.0672C15.0929 18.6839 13.4734 19.1195 11.821 19.3657L12.2017 19.3136C11.0403 19.4661 9.86437 19.4661 8.70299 19.3136L9.08369 19.3657C8.6289 19.3058 8.17817 19.2175 7.73407 19.1014C7.51326 19.0416 7.29436 18.976 7.07736 18.9085C6.97076 18.8718 6.86227 18.8332 6.75568 18.7908L6.59767 18.7271C6.80706 18.8197 6.84323 18.8332 6.70237 18.7734C6.28671 18.5843 5.88636 18.3624 5.50504 18.1097C5.41748 18.0518 5.33566 17.99 5.25 17.9302C5.13198 17.8395 5.1662 17.8685 5.35465 18.0132C5.31278 17.9823 5.27282 17.9495 5.23285 17.9167C5.07295 17.7881 4.91878 17.6492 4.7703 17.5C4.62373 17.3533 4.48097 17.2009 4.34582 17.0446C4.27729 16.9655 4.21257 16.8845 4.15546 16.8034C4.06409 16.6877 4.09073 16.7224 4.2354 16.9115L4.14403 16.786C3.90093 16.4468 3.68455 16.0888 3.49685 15.7152C3.45116 15.6226 3.40544 15.5222 3.36166 15.4335C3.19986 15.0765 3.44351 15.6554 3.36166 15.418C3.28742 15.2251 3.21512 15.0322 3.1542 14.8257C3.03201 14.4266 2.94159 14.0181 2.88387 13.6043L2.93527 13.9902C2.85246 13.344 2.85246 12.6896 2.93527 12.0434L2.88387 12.4293C2.93818 12.0189 3.02542 11.6136 3.14468 11.2176C3.20368 11.0246 3.27031 10.8317 3.33503 10.6387C3.47779 10.2741 3.23224 10.8548 3.33503 10.6272C3.37881 10.5326 3.42068 10.4342 3.46636 10.3455C3.63761 9.9973 3.83424 9.66259 4.05457 9.34406C4.11168 9.25917 4.17829 9.18005 4.23349 9.09322C3.98984 9.47912 4.17831 9.16849 4.25064 9.08166C4.38198 8.92344 4.51902 8.77101 4.66179 8.62244C4.80455 8.47387 4.95495 8.33301 5.10914 8.19795C5.18528 8.13234 5.27094 8.0706 5.34517 8.005C5.02348 8.31178 5.2671 8.06674 5.36228 8.005C5.69145 7.76899 6.03903 7.56057 6.4016 7.38178C6.49868 7.33354 6.611 7.29689 6.70428 7.24093C6.49108 7.33162 6.4549 7.34705 6.59576 7.28917L6.74996 7.22937C6.95935 7.15026 7.17066 7.08078 7.38385 7.01904C7.81403 6.89659 8.25232 6.80569 8.69537 6.747L8.31466 6.79908C9.26766 6.6804 10.2318 6.68625 11.1833 6.81646L10.8026 6.76436C11.527 6.8666 12.2419 7.02857 12.9403 7.24866C13.3019 7.36057 13.6579 7.48791 14.0101 7.63455L14.2632 7.73489L14.3889 7.78697C14.5354 7.84678 14.2499 7.72717 14.2575 7.73103C14.4345 7.81592 14.6173 7.89118 14.7943 7.97414C16.1782 8.64571 17.5173 9.40818 18.8032 10.2567C21.3215 11.8717 23.7866 13.5677 26.3164 15.1614C28.8119 16.7359 31.3703 18.2197 34.0657 19.4063C36.8715 20.6489 39.7763 21.6116 42.8315 21.9918C45.4964 22.3217 48.3156 22.0747 50.7216 20.8109C51.9672 20.1508 53.0345 19.1916 53.8301 18.017C54.6163 16.8594 55.016 15.5087 55.193 14.1388C55.4834 11.5212 54.7932 8.88853 53.259 6.76243C51.5459 4.41619 48.9837 2.87261 46.1988 2.18379C43.3968 1.49101 40.4663 1.53951 37.6881 2.32464C34.9394 3.1273 32.6209 4.78084 30.4547 6.62735C29.9369 7.07113 29.4268 7.52456 28.9166 7.97798C28.3456 8.47965 28.3722 9.52158 28.9166 10.0252C29.1885 10.288 29.5498 10.4346 29.9255 10.4346C30.3012 10.4346 30.6625 10.288 30.9344 10.0252C31.515 9.50808 32.0955 8.99098 32.6894 8.4816C32.9826 8.23269 33.2795 7.9915 33.5784 7.75225C33.3024 7.96449 33.7687 7.59982 33.5784 7.75225C33.6488 7.69629 33.7231 7.64034 33.7954 7.58632C33.9401 7.47634 34.0867 7.36828 34.2332 7.26216C34.8369 6.82345 35.4669 6.42329 36.1196 6.06396C36.4356 5.89031 36.7586 5.72952 37.0885 5.58159C37.1342 5.56037 37.1837 5.53527 37.2313 5.5179C37.2503 5.5179 36.9248 5.6472 37.0695 5.58738L37.3227 5.48319C37.513 5.41179 37.6919 5.34232 37.8785 5.27865C38.7189 4.9936 39.5846 4.79199 40.4635 4.67665L40.0828 4.72875C41.4799 4.54065 42.8952 4.53677 44.2934 4.71719L43.9127 4.66509C44.8241 4.78715 45.7217 4.99845 46.5929 5.29603C46.8003 5.36742 47.004 5.44459 47.2058 5.52563L47.3486 5.58545C46.9678 5.43495 47.1354 5.49283 47.2191 5.53142C47.3352 5.58352 47.4532 5.63754 47.5674 5.69349C47.9711 5.88776 48.3627 6.10685 48.7401 6.34952C48.9304 6.46722 49.1017 6.59071 49.2769 6.71805L49.4006 6.81066C49.5909 6.94573 49.3073 6.73347 49.294 6.72576C49.3987 6.801 49.4958 6.88784 49.5928 6.9708C49.9358 7.26153 50.2571 7.57754 50.5541 7.91625C50.6169 7.98571 50.6779 8.05903 50.7445 8.13235L50.8339 8.24234C50.9748 8.41407 50.7445 8.12271 50.7407 8.11692C50.8818 8.2917 51.0091 8.47751 51.1214 8.67261C51.3449 9.02346 51.5452 9.38891 51.721 9.76661C51.7724 9.87852 51.9285 10.2779 51.7477 9.81485C51.7914 9.92483 51.8371 10.0367 51.8771 10.1486C51.9589 10.3705 52.0332 10.5982 52.0998 10.8278C52.2287 11.2852 52.3248 11.7514 52.3872 12.2228L52.3377 11.8369C52.4367 12.6055 52.4367 13.3838 52.3377 14.1523L52.3891 13.7664C52.3005 14.3952 52.1389 15.0111 51.9075 15.6013C51.8542 15.7403 52.0008 15.3949 51.9856 15.4084C51.9682 15.4382 51.9541 15.4699 51.9437 15.5029L51.8409 15.721C51.7686 15.8657 51.6924 16.0085 51.6106 16.1474C51.5287 16.2863 51.4545 16.404 51.3708 16.5333C51.3308 16.5912 51.2889 16.6471 51.2489 16.7031C51.1499 16.8459 51.4545 16.4445 51.346 16.5777L51.2584 16.6876C51.0518 16.9418 50.8272 17.1804 50.5865 17.4016C50.4704 17.5096 50.3486 17.6099 50.2286 17.7103C50.1087 17.8106 50.4875 17.5173 50.3466 17.6177L50.261 17.6813C50.1829 17.7392 50.1049 17.7932 50.0249 17.8472C49.7571 18.0283 49.4787 18.1926 49.1912 18.3393C49.0827 18.3933 48.8409 18.4493 48.7686 18.5322C48.7686 18.5438 49.077 18.4049 48.9437 18.457C48.9095 18.4705 48.8771 18.4859 48.8429 18.4975C48.7534 18.5341 48.6639 18.5689 48.5725 18.6017C47.8571 18.8573 47.1169 19.0351 46.3644 19.1323L46.7452 19.0821C45.3723 19.2494 43.9838 19.2351 42.6145 19.0397L42.9952 19.0898C40.5054 18.7445 38.086 17.9592 35.7618 16.9906C35.4724 16.8709 36.072 17.1276 35.7846 16.9906L35.6247 16.9211C35.4667 16.8517 35.3087 16.7822 35.1507 16.7089C34.8595 16.5776 34.5797 16.4426 34.2846 16.3037C33.7085 16.0284 33.1374 15.7403 32.5714 15.4393C31.4084 14.8218 30.2682 14.1639 29.1451 13.4789C26.9313 12.1283 24.7784 10.6908 22.6159 9.26302C20.385 7.79083 18.1521 6.2569 15.6985 5.18797C14.4209 4.59998 13.0723 4.18542 11.6877 3.95503C10.2507 3.72496 8.78554 3.7452 7.35527 4.01486C6.0601 4.2699 4.83521 4.80758 3.7656 5.59056C2.69599 6.37355 1.80732 7.38309 1.16121 8.54912C-0.093223 10.8355 -0.371158 13.6429 0.571092 16.0992C1.04463 17.3768 1.78189 18.5372 2.73353 19.5028C3.75566 20.4931 4.98367 21.2388 6.32738 21.685C8.77152 22.5262 11.4669 22.4413 13.9587 21.8953C16.3517 21.3677 18.655 20.4854 20.7942 19.277C21.2435 19.0223 21.6832 18.7464 22.1058 18.4473C22.4205 18.2495 22.6533 17.9422 22.7606 17.5829C22.8597 17.2066 22.8084 16.8059 22.6178 16.4677C22.2257 15.8522 21.3177 15.4856 20.6629 15.9487L20.6534 15.9641Z" fill="currentColor"/>
</g>
</g>
<defs>
<clipPath id="clip0_515_9">
<rect width="150.14" height="24" fill="white"/>
</clipPath>
<clipPath id="clip1_515_9">
<rect width="55.2558" height="20.6512" fill="white" transform="translate(0 1.67441)"/>
</clipPath>
</defs>
</svg>
